<?xml version="1.0" standalone="no"?>
<!DOCTYPE svg PUBLIC "-//W3C//DTD SVG 20010904//EN"
 "http://www.w3.org/TR/2001/REC-SVG-20010904/DTD/svg10.dtd">
<svg version="1.0" xmlns="http://www.w3.org/2000/svg"
 width="290.000000pt" height="10.000000pt" viewBox="0 0 290.000000 10.000000"
 preserveAspectRatio="xMidYMid meet">
<metadata>
Created by potrace 1.16, written by Peter Selinger 2001-2019
</metadata>
<g transform="translate(0.000000,10.000000) scale(0.100000,-0.100000)"
fill="#000000" stroke="none">
<path d="M81 93 c-41 -8 -71 -34 -71 -59 l0 -24 233 1 c127 0 286 4 352 8 66
4 485 2 930 -3 1154 -14 1356 -10 1363 26 2 9 -5 19 -15 22 -47 13 -835 28
-993 18 -153 -9 -1348 -1 -1660 12 -63 2 -126 2 -139 -1z"/>
</g>
</svg>
