<?xml version="1.0" standalone="no"?>
<!DOCTYPE svg PUBLIC "-//W3C//DTD SVG 20010904//EN"
 "http://www.w3.org/TR/2001/REC-SVG-20010904/DTD/svg10.dtd">
<svg version="1.0" xmlns="http://www.w3.org/2000/svg"
 width="292.000000pt" height="12.000000pt" viewBox="0 0 292.000000 12.000000"
 preserveAspectRatio="xMidYMid meet">
<metadata>
Created by potrace 1.16, written by Peter Selinger 2001-2019
</metadata>
<g transform="translate(0.000000,12.000000) scale(0.100000,-0.100000)"
fill="#000000" stroke="none">
<path d="M55 101 c-31 -5 -41 -11 -43 -27 -3 -20 3 -22 60 -28 35 -3 212 -11
393 -18 435 -17 2437 -18 2442 -2 2 6 -9 20 -24 30 -26 17 -62 19 -508 25
-264 4 -824 10 -1245 13 -421 4 -826 8 -900 9 -74 2 -153 1 -175 -2z"/>
</g>
</svg>
